<svg aria-hidden="true" fill="none" height="40" viewBox="0 0 26 40" width="26"
    xmlns="http://www.w3.org/2000/svg">
    <title>Netflix Studio logo</title>
    <path clip-rule="evenodd"
        d="M15.2572 6V11.3261V18.239V19.5319C15.4177 19.9736 16.0965 21.8486 16.2702 22.3208V22.3208C16.5948 23.2212 18.4425 28.304 18.5902 28.7107V28.7107C18.7226 29.0755 19.0914 30.0897 19.2086 30.4142V30.4142C19.2772 30.602 19.456 31.0934 19.5511 31.3555V31.3555C19.6254 31.5604 19.6188 31.5436 19.6648 31.6704V31.6704C19.7308 31.6962 20.3646 31.9464 20.4556 31.9825V31.9825C20.4581 31.9834 20.4634 31.9856 20.4699 31.9882V31.9882C20.4803 31.9922 20.4762 31.9904 20.4813 31.9925V31.9925C20.4922 31.9967 20.4958 31.9982 20.4997 31.9998V31.9998C20.4998 31.8056 20.4999 31.5183 20.5 31.2109V31.2109V6H15.2572Z"
        fill="url(#paint0_linear)" fill-rule="evenodd"></path>
    <path clip-rule="evenodd"
        d="M5.5 7.80666V9.61582V16.4022V31.9998C7.5826 31.7561 8.62418 31.6614 10.7427 31.5675V26.6735V19.7608V18.4679C10.5823 18.0262 6.54387 6.90635 6.44881 6.64422C6.37444 6.43932 6.38114 6.4562 6.33508 6.32944C6.26912 6.30353 5.63527 6.05334 5.54435 6.01723C5.51961 6.00757 5.52367 6.00931 5.51868 6.00729C5.5077 6.00306 5.50414 6.00153 5.50021 6C5.50014 6.19406 5.50007 6.48148 5.5 6.78883V7.80666Z"
        fill="url(#paint1_linear)" fill-rule="evenodd"></path>
    <path clip-rule="evenodd"
        d="M10.8558 6H5.5L14.9839 31.5676C17.649 31.6317 20.5 32 20.5 32L10.8558 6Z" fill="#E50914"
        fill-rule="evenodd"></path>
    <defs>
        <linearGradient gradientUnits="userSpaceOnUse" id="paint0_linear" x1="17.1999" x2="19.4539"
            y1="26.3958" y2="25.7552">
            <stop offset="0.354167" stop-color="#7C020D"></stop>
            <stop offset="1" stop-color="#B20710"></stop>
        </linearGradient>
        <linearGradient gradientUnits="userSpaceOnUse" id="paint1_linear" x1="9.4" x2="6.79079"
            y1="12.7986" y2="13.552">
            <stop offset="0.489583" stop-color="#7C020D"></stop>
            <stop offset="1" stop-color="#B20710"></stop>
        </linearGradient>
    </defs>
</svg>